<?xml version="1.0" encoding="UTF-8" standalone="no"?>
<svg
   xmlns:dc="http://purl.org/dc/elements/1.1/"
   xmlns:cc="http://creativecommons.org/ns#"
   xmlns:rdf="http://www.w3.org/1999/02/22-rdf-syntax-ns#"
   xmlns:svg="http://www.w3.org/2000/svg"
   xmlns="http://www.w3.org/2000/svg"
   id="svg836"
   version="1.1"
   viewBox="0 0 875.00001 875.00001"
   height="875mm"
   width="875mm">
  <defs
     id="defs830" />
  <metadata
     id="metadata833">
    <rdf:RDF>
      <cc:Work
         rdf:about="">
        <dc:format>image/svg+xml</dc:format>
        <dc:type
           rdf:resource="http://purl.org/dc/dcmitype/StillImage" />
        <dc:title></dc:title>
      </cc:Work>
    </rdf:RDF>
  </metadata>
  <g
     transform="translate(673.35712,366.52975)"
     id="layer1">
    <rect
       ry="12.534953"
       y="-366.52975"
       x="-673.35712"
       height="875"
       width="875"
       id="rect924"
       style="opacity:1;fill:none;stroke-width:0.26458332" />
    <path
       id="path4522"
       d="m -370.14541,-41.717927 c -6.93658,-3e-6 -12.52087,5.584303 -12.52087,12.520879 0,6.936576 5.58429,12.520878 12.52087,12.520878 h 45.33482 47.59714 2.34078 v 0.21998 c 5.80968,1.09064 10.1801,6.16513 10.1801,12.3008971 0,6.135759 -4.37042,11.210256 -10.1801,12.300894 v 0.21998 h -2.34078 -35.02328 c -6.93658,0 -12.52087,5.5843009 -12.52087,12.5208799 0,6.936576 5.58429,12.520877 12.52087,12.520877 h 20.69531 2.77671 c 6.93658,0 12.52088,5.584291 12.52088,12.52088 0,6.936578 -5.5843,12.520875 -12.52088,12.520875 h -2.77671 -28.15169 -25.36471 c -6.93658,0 -12.52088,5.5843 -12.52088,12.52088 0,6.93658 5.5843,12.52087 12.52088,12.52087 h 21.24093 46.80339 1.34708 v 0.0725 c 6.2982,0.66809 11.1738,5.96725 11.1738,12.44838 0,6.481167 -4.8756,11.780307 -11.1738,12.448397 v 0.0725 h -1.34708 -13.08869 c -6.93658,0 -12.52088,5.5843 -12.52088,12.52088 0,6.93658 5.5843,12.52088 12.52088,12.52088 h 0.4903 18.1788 0.71482 c 6.93658,0 12.52088,5.58481 12.52088,12.52138 0,6.93658 -5.5843,12.52088 -12.52088,12.52087 h -0.71482 -18.1788 -31.22315 c -6.93657,1e-5 -12.52087,5.58431 -12.52087,12.52088 0,6.93658 5.5843,12.52089 12.52087,12.52089 h 54.42904 1.26753 70.9134 c 79.18616,0 114.820247,-47.20749 114.820247,-112.992957 0,-29.542524 -7.61426,-55.430368 -24.669747,-75.8360509 -24.97409,-31.9790181 -62.43526,-36.5472691 -92.58693,-36.5472691 h -68.47697 -1.26753 z m 139.67759,31.674451 h 38.37461 c 28.9334,0 46.90268,10.0508011 58.7806,23.756093 12.48705,15.228131 18.27365,35.937989 18.27365,57.561906 0,46.902597 -24.36498,80.709387 -77.3588,80.709387 h -38.07006 z M -356.52965,8.3655811 c -6.93658,0 -12.52088,5.5843009 -12.52088,12.5208799 0,6.936576 5.5843,12.520877 12.52088,12.520877 h 11.9601 c 6.93657,0 12.52088,-5.584301 12.52088,-12.520877 0,-6.936579 -5.58431,-12.5208799 -12.52088,-12.5208799 z M -379.78858,108.53259 c -6.93658,0 -12.52088,5.5843 -12.52088,12.52088 0,6.93658 5.5843,12.52088 12.52088,12.52088 h 21.39769 c 6.93658,0 12.52088,-5.5843 12.52088,-12.52088 0,-6.93658 -5.5843,-12.52088 -12.52088,-12.52088 z m 52.23651,0 c -6.93657,0 -12.52087,5.5843 -12.52087,12.52088 0,6.93658 5.5843,12.52088 12.52087,12.52088 h 5.9798 c 6.93658,0 12.52088,-5.5843 12.52088,-12.52088 0,-6.93658 -5.5843,-12.52088 -12.52088,-12.52088 h -2.24462 z"
       style="font-style:normal;font-variant:normal;font-weight:500;font-stretch:normal;font-size:289.39297485px;line-height:1.25;font-family:'ITC Avant Garde Gothic Std';-inkscape-font-specification:'ITC Avant Garde Gothic Std Medium';letter-spacing:0px;word-spacing:0px;opacity:1;fill:#000000;fill-opacity:1;stroke:none;stroke-width:7.61405802" />
  </g>
</svg>
